<svg xmlns="http://www.w3.org/2000/svg" viewBox="0 0 64 64" role="img" aria-label="Asistente Facultad">
  <defs>
    <linearGradient id="grad" x1="0%" y1="0%" x2="100%" y2="100%">
      <stop offset="0%" stop-color="#2f6488" />
      <stop offset="35%" stop-color="#44a3a8" />
      <stop offset="65%" stop-color="#61c796" />
      <stop offset="100%" stop-color="#7edb96" />
    </linearGradient>
  </defs>
  <rect x="4" y="4" width="56" height="56" rx="14" fill="url(#grad)" />
  <path d="M16 23.5C16 21 18 19 20.5 19h10c1.2 0 2.3.5 3.2 1.3.9-.8 2-1.3 3.3-1.3h7.5c2.5 0 4.5 2 4.5 4.5V42c0 1.4-.8 2.7-2 3.4-.7.4-1.6.6-2.4.6H37c-1 0-2 .4-2.7 1.2l-.8.8-.8-.8A3.7 3.7 0 0 0 30 46h-9.5c-.9 0-1.7-.2-2.4-.6-1.2-.7-2.1-2-2.1-3.4V23.5Zm4 0V42h9.4c1 0 2.1.2 3.1.7V24.3c-.6-.8-1.5-1.3-2.5-1.3H20.5c-.3 0-.5.2-.5.5Zm16 18.5c.9-.5 2-.7 3.1-.7h5.4V23.5c0-.3-.2-.5-.5-.5H37c-1 0-1.9.5-2.5 1.3V42Z" fill="#e7f4ee"/>
  <circle cx="49" cy="49" r="7" fill="#aedeb3"/>
  <path d="M45.8 49h6.4" stroke="#2f6488" stroke-width="1.8" stroke-linecap="round"/>
  <path d="M49 45.8v6.4" stroke="#2f6488" stroke-width="1.8" stroke-linecap="round"/>
</svg>
