<svg xmlns="http://www.w3.org/2000/svg" viewBox="0 0 1200 700" role="img" aria-label="Asistente de facultad seguro">
  <defs>
    <linearGradient id="fondo" x1="0%" y1="0%" x2="100%" y2="100%">
      <stop offset="0%" stop-color="#0f2131" />
      <stop offset="50%" stop-color="#1b364d" />
      <stop offset="100%" stop-color="#2c4f63" />
    </linearGradient>
    <linearGradient id="escudo" x1="0%" y1="0%" x2="100%" y2="100%">
      <stop offset="0%" stop-color="#2f6488" />
      <stop offset="50%" stop-color="#44a3a8" />
      <stop offset="100%" stop-color="#61c796" />
    </linearGradient>
    <filter id="sombra" x="-20%" y="-20%" width="140%" height="140%">
      <feDropShadow dx="0" dy="8" stdDeviation="10" flood-color="#000" flood-opacity="0.35" />
    </filter>
  </defs>

  <rect width="1200" height="700" fill="url(#fondo)" />

  <path
    d="M600 120l190 100v180c0 120-83 225-190 265-107-40-190-145-190-265V220l190-100z"
    fill="url(#escudo)"
    stroke="#d9e3ea"
    stroke-width="14"
    filter="url(#sombra)"
  />

  <rect x="533" y="300" width="134" height="112" rx="20" fill="#d8dde2" stroke="#9aa7b3" stroke-width="8" />
  <path d="M560 300v-25a40 40 0 0 1 80 0v25" fill="none" stroke="#9aa7b3" stroke-width="14" stroke-linecap="round" />
  <circle cx="600" cy="350" r="12" fill="#2f6488" />

  <g filter="url(#sombra)">
    <rect x="210" y="170" width="250" height="180" rx="24" fill="#ecf1f5" stroke="#9fb0be" stroke-width="8" />
    <rect x="210" y="170" width="250" height="42" rx="24" fill="#2f6488" />
    <rect x="245" y="235" width="35" height="28" rx="6" fill="#c7d0d9" />
    <rect x="288" y="235" width="35" height="28" rx="6" fill="#c7d0d9" />
    <rect x="331" y="235" width="35" height="28" rx="6" fill="#44a3a8" />
    <rect x="374" y="235" width="35" height="28" rx="6" fill="#2f6488" />
  </g>

  <g filter="url(#sombra)">
    <rect x="780" y="170" width="210" height="150" rx="28" fill="#61c796" stroke="#c8e4d2" stroke-width="8" />
    <path d="M835 245h95" stroke="#ecf5ef" stroke-width="16" stroke-linecap="round" />
    <path d="M908 220c-20-22-56-25-80-8" fill="none" stroke="#ecf5ef" stroke-width="14" stroke-linecap="round" />
    <path d="M832 270c20 22 56 25 80 8" fill="none" stroke="#ecf5ef" stroke-width="14" stroke-linecap="round" />
  </g>

  <g filter="url(#sombra)">
    <circle cx="290" cy="500" r="92" fill="#2f8fd8" stroke="#d7e6f2" stroke-width="8" />
    <path d="M245 505l82-40-38 55z" fill="#eef6fc" />
  </g>

  <g filter="url(#sombra)">
    <rect x="760" y="430" width="260" height="160" rx="80" fill="#d8dde2" stroke="#9aa7b3" stroke-width="8" />
    <rect x="795" y="465" width="190" height="72" rx="36" fill="#1a2f3d" />
    <circle cx="850" cy="500" r="12" fill="#61c796" />
    <circle cx="930" cy="500" r="12" fill="#61c796" />
    <circle cx="892" cy="420" r="10" fill="#61c796" />
    <rect x="888" y="430" width="8" height="18" rx="4" fill="#9aa7b3" />
  </g>
</svg>
